HIERARCHY
ROOT hip
{
  OFFSET -28.1951 78.2798 -8.98908
  CHANNELS 6 Xposition Yposition Zposition Zrotation Xrotation Yrotation
  JOINT abdomen
  {
    OFFSET 0 20.6881 -0.73152
    CHANNELS 3 Zrotation Xrotation Yrotation
    JOINT chest
    {
      OFFSET 0 11.7043 -0.48768
      CHANNELS 3 Zrotation Xrotation Yrotation
      JOINT neck
      {
        OFFSET 0 22.1894 -2.19456
        CHANNELS 3 Zrotation Xrotation Yrotation
        JOINT head
        {
          OFFSET -0.24384 7.07133 1.2192
          CHANNELS 3 Zrotation Xrotation Yrotation
          JOINT leftEye
          {
            OFFSET 4.14528 8.04674 8.04672
            CHANNELS 3 Zrotation Xrotation Yrotation
            End Site
            {
              OFFSET 1 0 0
            }
          }
          JOINT rightEye
          {
            OFFSET -3.6576 8.04674 8.04672
            CHANNELS 3 Zrotation Xrotation Yrotation
            End Site
            {
              OFFSET 1 0 0
            }
          }
        }
      }
      JOINT rCollar
      {
        OFFSET -2.68224 19.2634 -4.8768
        CHANNELS 3 Zrotation Xrotation Yrotation
        JOINT rShldr
        {
          OFFSET -8.77824 -1.95073 1.46304
          CHANNELS 3 Zrotation Xrotation Yrotation
          JOINT rForeArm
          {
            OFFSET -28.1742 -1.7115 0.48768
            CHANNELS 3 Zrotation Xrotation Yrotation
            JOINT rHand
            {
              OFFSET -22.5879 0.773209 7.07136
              CHANNELS 3 Zrotation Xrotation Yrotation
              JOINT rThumb1
              {
                OFFSET -1.2192 -0.487915 3.41376
                CHANNELS 3 Zrotation Xrotation Yrotation
                JOINT rThumb2
                {
                  OFFSET -3.37035 -0.52449 3.41376
                  CHANNELS 3 Zrotation Xrotation Yrotation
                  End Site
                  {
                    OFFSET -1.78271 -1.18214 1.43049
                  }
                }
              }
              JOINT rIndex1
              {
                OFFSET -7.75947 0.938293 5.60832
                CHANNELS 3 Zrotation Xrotation Yrotation
                JOINT rIndex2
                {
                  OFFSET -2.54057 -0.884171 1.56538
                  CHANNELS 3 Zrotation Xrotation Yrotation
                  End Site
                  {
                    OFFSET -1.62519 -0.234802 1.16502
                  }
                }
              }
              JOINT rMid1
              {
                OFFSET -8.24714 1.18213 3.41376
                CHANNELS 3 Zrotation Xrotation Yrotation
                JOINT rMid2
                {
                  OFFSET -3.10165 -0.590103 1.0647
                  CHANNELS 3 Zrotation Xrotation Yrotation
                  End Site
                  {
                    OFFSET -2.48547 -0.328903 0.83742
                  }
                }
              }
              JOINT rRing1
              {
                OFFSET -8.82822 0.546677 1.51678
                CHANNELS 3 Zrotation Xrotation Yrotation
                JOINT rRing2
                {
                  OFFSET -2.60934 -0.819778 -0.0198488
                  CHANNELS 3 Zrotation Xrotation Yrotation
                  End Site
                  {
                    OFFSET -2.33842 -0.294052 0.168128
                  }
                }
              }
              JOINT rPinky1
              {
                OFFSET -8.27202 -0.0477905 -0.4584
                CHANNELS 3 Zrotation Xrotation Yrotation
                JOINT rPinky2
                {
                  OFFSET -1.82734 -0.647385 -0.700984
                  CHANNELS 3 Zrotation Xrotation Yrotation
                  End Site
                  {
                    OFFSET -1.69225 -0.51767 -0.607171
                  }
                }
              }
            }
          }
        }
      }
      JOINT lCollar
      {
        OFFSET 2.68224 19.2634 -4.8768
        CHANNELS 3 Zrotation Xrotation Yrotation
        JOINT lShldr
        {
          OFFSET 8.77824 -1.95073 1.46304
          CHANNELS 3 Zrotation Xrotation Yrotation
          JOINT lForeArm
          {
            OFFSET 28.1742 -1.7115 0.48768
            CHANNELS 3 Zrotation Xrotation Yrotation
            JOINT lHand
            {
              OFFSET 22.5879 0.773209 7.07136
              CHANNELS 3 Zrotation Xrotation Yrotation
              JOINT lThumb1
              {
                OFFSET 1.2192 -0.487915 3.41376
                CHANNELS 3 Zrotation Xrotation Yrotation
                JOINT lThumb2
                {
                  OFFSET 3.37035 -0.52449 3.41376
                  CHANNELS 3 Zrotation Xrotation Yrotation
                  End Site
                  {
                    OFFSET 1.78271 -1.18214 1.43049
                  }
                }
              }
              JOINT lIndex1
              {
                OFFSET 7.75947 0.938293 5.60832
                CHANNELS 3 Zrotation Xrotation Yrotation
                JOINT lIndex2
                {
                  OFFSET 2.54057 -0.884171 1.56538
                  CHANNELS 3 Zrotation Xrotation Yrotation
                  End Site
                  {
                    OFFSET 1.62519 -0.234802 1.16502
                  }
                }
              }
              JOINT lMid1
              {
                OFFSET 8.24714 1.18213 3.41376
                CHANNELS 3 Zrotation Xrotation Yrotation
                JOINT lMid2
                {
                  OFFSET 3.10165 -0.590103 1.0647
                  CHANNELS 3 Zrotation Xrotation Yrotation
                  End Site
                  {
                    OFFSET 2.48547 -0.328903 0.83742
                  }
                }
              }
              JOINT lRing1
              {
                OFFSET 8.82822 0.546677 1.51678
                CHANNELS 3 Zrotation Xrotation Yrotation
                JOINT lRing2
                {
                  OFFSET 2.60934 -0.819778 -0.0198488
                  CHANNELS 3 Zrotation Xrotation Yrotation
                  End Site
                  {
                    OFFSET 2.33842 -0.294052 0.168128
                  }
                }
              }
              JOINT lPinky1
              {
                OFFSET 8.27202 -0.0477905 -0.4584
                CHANNELS 3 Zrotation Xrotation Yrotation
                JOINT lPinky2
                {
                  OFFSET 1.82734 -0.647385 -0.700984
                  CHANNELS 3 Zrotation Xrotation Yrotation
                  End Site
                  {
                    OFFSET 1.69225 -0.51767 -0.607171
                  }
                }
              }
            }
          }
        }
      }
    }
  }
  JOINT rButtock
  {
    OFFSET -8.77824 4.35084 1.2192
    CHANNELS 3 Zrotation Xrotation Yrotation
    JOINT rThigh
    {
      OFFSET 0 -1.70687 -2.19456
      CHANNELS 3 Zrotation Xrotation Yrotation
      JOINT rShin
      {
        OFFSET 0 -36.8199 0.73152
        CHANNELS 3 Zrotation Xrotation Yrotation
        JOINT rFoot
        {
          OFFSET 0.73152 -45.1104 -5.12064
          CHANNELS 3 Zrotation Xrotation Yrotation
          End Site
          {
            OFFSET -1.1221 -3.69964 12.103
          }
        }
      }
    }
  }
  JOINT lButtock
  {
    OFFSET 8.77824 4.35084 1.2192
    CHANNELS 3 Zrotation Xrotation Yrotation
    JOINT lThigh
    {
      OFFSET 0 -1.70687 -2.19456
      CHANNELS 3 Zrotation Xrotation Yrotation
      JOINT lShin
      {
        OFFSET 0 -36.8199 0.73152
        CHANNELS 3 Zrotation Xrotation Yrotation
        JOINT lFoot
        {
          OFFSET -0.73152 -45.1104 -5.12064
          CHANNELS 3 Zrotation Xrotation Yrotation
          End Site
          {
            OFFSET 1.1221 -3.69964 12.103
          }
        }
      }
    }
  }
}
MOTION
Frames:	4
Frame Time:	0.00833333
85.1795 85.2022 -28.5874 -0.457848 -0.000986241 0.00783598 0.60224 -0.00285569 0.0171683 0.166047 -0.00431788 0.0287696 3.203e-015 7.95139e-016 1.18028e-016 9.70628e-015 9.54166e-015 3.55638e-016 -0 0 0 -0 0 0 1.73808e-015 -3.68839e-018 1.49089e-016 3.53734e-014 -4.47265e-016 2.5842e-015 5.89198e-013 -1.80099e-013 3.49861e-014 6.72808e-012 1.595e-013 2.57625e-013 1.58749e-011 -3.6764e-014 6.36111e-013 2.74013e-011 -6.04305e-014 1.07582e-012 1.58797e-011 -3.45885e-014 6.20208e-013 7.73091 5.47488 0.417314 1.58758e-011 -3.6477e-014 6.2975e-013 2.90554 0.965183 0.102902 1.58887e-011 -3.61788e-014 6.28955e-013 10.2786 0.731801 0.0259123 1.58714e-011 -3.69739e-014 6.3293e-013 2.22167 -0.733487 -0.20892 1.64137e-015 -2.71776e-018 -4.96962e-017 3.22357e-014 -3.35449e-016 3.97569e-016 5.84675e-013 1.74931e-013 9.54166e-015 6.73704e-012 -1.88522e-013 2.76708e-013 1.58853e-011 -2.29475e-014 6.23389e-013 2.74386e-011 -3.49861e-014 1.08298e-012 1.58813e-011 -2.14687e-014 6.26569e-013 -7.73091 5.47488 -0.417314 1.5885e-011 -2.29596e-014 6.20208e-013 -2.90554 0.965183 -0.102902 1.58731e-011 -2.23633e-014 6.26569e-013 -10.2786 0.731801 -0.0259123 1.58871e-011 -2.26615e-014 6.20208e-013 -2.22167 -0.733487 0.20892 -2.03217e-016 0 -3.88251e-019 0.98547 -4.60218 -0.0812421 -0.00202255 2.78416 -0.00804026 -0.532649 1.81804 0.0982293 2.03217e-016 0 3.88251e-019 -0.0701488 -2.29252 0.0218603 0.0084666 -1.39935 0.0723332 0.526162 3.69178 -0.136084 
82.0537 83.5197 -32.061 11.2017 21.1009 28.3284 -2.60068 0.180161 1.21802 0.818272 -0.0117666 0.348777 -1.55226 1.62653 -1.67444 2.25852 -0.938473 -3.12835 -0 0 0 -0 0 0 -1.99158e-015 -6.06591e-014 -1.41362e-015 19.5705 -3.5208 0.0486796 -5.26073 -2.64191 7.92556 0.0051351 -1.59288 -0.223555 -2.95883e-010 2.29072e-010 -1.50316e-010 -5.11174e-010 3.98389e-010 -2.60969e-010 -2.95879e-010 2.29073e-010 -1.50329e-010 7.73091 5.47488 0.417314 -2.95883e-010 2.29073e-010 -1.50318e-010 2.90554 0.965183 0.102902 -2.95873e-010 2.29072e-010 -1.50321e-010 10.2786 0.731801 0.0259123 -2.95886e-010 2.29073e-010 -1.50316e-010 2.22167 -0.733487 -0.20892 -2.04482e-015 -6.06584e-014 -1.60775e-015 -20.9132 3.13321 1.10257 3.45773 -1.44491 -5.53001 -0.00017851 0.325698 -0.0457723 -8.55542e-011 -2.61484e-011 2.71148e-010 -1.47249e-010 -4.54222e-011 4.68826e-010 -8.55581e-011 -2.61481e-011 2.71148e-010 -7.73091 5.47488 -0.417314 -8.55541e-011 -2.61489e-011 2.71148e-010 -2.90554 0.965183 -0.102902 -8.55638e-011 -2.61489e-011 2.71151e-010 -10.2786 0.731801 -0.0259123 -8.55492e-011 -2.61487e-011 2.71142e-010 -2.22167 -0.733487 0.20892 -2.03217e-016 0 -3.88251e-019 -2.26391 -11.3844 -0.268988 0.00226199 16.5258 0.190909 -0.984931 -0.628986 -3.98541 2.03217e-016 0 3.88251e-019 -2.24652 -4.92174 0.142994 -0.011942 5.90754 -0.0605393 0.625149 -2.23241 1.20599 
81.8899 83.5333 -31.9881 3.4661 26.1392 64.3858 -5.99379 0.371154 2.48993 1.50607 -0.0170938 0.687722 -3.08184 3.33583 -3.44666 4.52542 -1.92595 -6.43371 -0 0 0 -0 0 0 -5.39601e-015 -1.11998e-013 -2.81715e-015 40.2915 -7.24384 0.0589964 -10.0232 -5.25622 16.3401 -0.0029654 -3.265 -0.458816 -6.56124e-010 4.84855e-010 -3.2066e-010 -1.1335e-009 8.43288e-010 -5.567e-010 -6.56121e-010 4.84855e-010 -3.2067e-010 7.73091 5.47488 0.417314 -6.56125e-010 4.84857e-010 -3.20657e-010 2.90554 0.965183 0.102902 -6.56117e-010 4.84855e-010 -3.20661e-010 10.2786 0.731801 0.0259123 -6.56125e-010 4.84857e-010 -3.20656e-010 2.22167 -0.733487 -0.20892 -5.40084e-015 -1.11998e-013 -3.00351e-015 -43.1621 6.45173 2.28319 6.82 -2.9329 -11.4013 0.000217956 0.654431 -0.0919768 -2.06514e-010 -5.05754e-011 5.84117e-010 -3.55553e-010 -8.78674e-011 1.00997e-009 -2.06517e-010 -5.05763e-011 5.84113e-010 -7.73091 5.47488 -0.417314 -2.06513e-010 -5.05764e-011 5.84119e-010 -2.90554 0.965183 -0.102902 -2.06521e-010 -5.05771e-011 5.84118e-010 -10.2786 0.731801 -0.0259123 -2.06505e-010 -5.05763e-011 5.84107e-010 -2.22167 -0.733487 0.20892 -2.03217e-016 0 -3.88251e-019 -5.75252 -18.5246 -0.477706 -0.112726 31.0507 0.449533 -1.84531 -3.19815 -8.32773 2.03217e-016 0 3.88251e-019 -4.53607 -7.70712 0.272648 0.0041526 13.6355 -0.206095 1.0341 -8.49099 2.65141 
81.7819 83.534 -31.8799 -3.20696 10.57 86.3198 -9.02953 0.545225 3.61986 2.12297 -0.0266606 0.988791 -4.3711 4.86289 -5.03947 6.46933 -2.78186 -9.39497 -0 0 0 -0 0 0 -9.45088e-015 -1.8197e-013 -4.53905e-015 58.7296 -10.5624 0.148276 -13.6446 -7.32043 23.9586 -0.0219948 -4.77835 -0.672743 -9.194e-010 6.87289e-010 -4.52221e-010 -1.58832e-009 1.19529e-009 -7.85058e-010 -9.19398e-010 6.87288e-010 -4.52228e-010 7.73091 5.47488 0.417314 -9.19401e-010 6.87291e-010 -4.52213e-010 2.90554 0.965183 0.102902 -9.19396e-010 6.87289e-010 -4.5222e-010 10.2786 0.731801 0.0259123 -9.194e-010 6.87292e-010 -4.52213e-010 2.22167 -0.733487 -0.20892 -9.4172e-015 -1.8197e-013 -4.72385e-015 -63.1054 9.38561 3.34763 9.54755 -4.1735 -16.6301 0.00102582 0.977092 -0.137335 -2.88433e-010 -7.83994e-011 8.12199e-010 -4.96623e-010 -1.36197e-010 1.40431e-009 -2.88437e-010 -7.84014e-011 8.12192e-010 -7.73091 5.47488 -0.417314 -2.88432e-010 -7.84008e-011 8.12203e-010 -2.90554 0.965183 -0.102902 -2.88438e-010 -7.84021e-011 8.12199e-010 -10.2786 0.731801 -0.0259123 -2.88422e-010 -7.84008e-011 8.12187e-010 -2.22167 -0.733487 0.20892 -2.03217e-016 0 -3.88251e-019 -8.9091 -24.9476 -0.693871 -0.371369 44.0067 0.785722 -2.93131 -5.40338 -12.2069 2.03217e-016 0 3.88251e-019 -6.56541 -10.18 0.389853 0.0538343 20.521 -0.347316 1.67388 -14.0492 4.00687 
